# xmcd
# 
# Track frame offsets:
#     150
#     29419
#     56240
#     72190
#     93503
#     108628
#     126088
#     146960
#     162969
#     178936
# 
# Disc length: 2760
# 
# Revision: 3
# Processed by: cddbd v1.5.2PL0 Copyright (c) Steve Scherf et al.
# Submitted via: fre:ac v1.0.27
# 
DISCID=990ac60a
DTITLE=Bryan Adams - (Everything I Do) I Do It For You
DYEAR=2001
DGENRE=Rock
TTITLE0=(Everything I Do) I Do It For You
TTITLE1=Please Forgive Me
TTITLE2=Straight From The Heart
TTITLE3=All For Love (with Rod Stewart and Sting)
TTITLE4=This Time
TTITLE5=Run To You
TTITLE6=Somebody
TTITLE7=Summer Of '69
TTITLE8=Hearts On Fire
TTITLE9=Let's Make A Night To Remember
EXTD=YEAR: 2001
EXTT0=
EXTT1=
EXTT2=
EXTT3=
EXTT4=
EXTT5=
EXTT6=
EXTT7=
EXTT8=
EXTT9=
PLAYORDER=
